<svg width="22" height="12" viewBox="0 0 22 12" fill="none" xmlns="http://www.w3.org/2000/svg">
<path d="M4.8 2.4V0H21.6V2.4H4.8ZM4.8 7.2V4.8H21.6V7.2H4.8ZM4.8 12V9.6H21.6V12H4.8ZM1.2 2.4C0.86 2.4 0.5752 2.2848 0.3456 2.0544C0.116 1.824 0.0008 1.5392 0 1.2C0 0.86 0.1152 0.5752 0.3456 0.3456C0.576 0.116 0.8608 0.0008 1.2 0C1.54 0 1.8252 0.1152 2.0556 0.3456C2.286 0.576 2.4008 0.8608 2.4 1.2C2.4 1.54 2.2848 1.8252 2.0544 2.0556C1.824 2.286 1.5392 2.4008 1.2 2.4ZM1.2 7.2C0.86 7.2 0.5752 7.0848 0.3456 6.8544C0.116 6.624 0.0008 6.3392 0 6C0 5.66 0.1152 5.3752 0.3456 5.1456C0.576 4.916 0.8608 4.8008 1.2 4.8C1.54 4.8 1.8252 4.9152 2.0556 5.1456C2.286 5.376 2.4008 5.6608 2.4 6C2.4 6.34 2.2848 6.6252 2.0544 6.8556C1.824 7.086 1.5392 7.2008 1.2 7.2ZM1.2 12C0.86 12 0.5752 11.8848 0.3456 11.6544C0.116 11.424 0.0008 11.1392 0 10.8C0 10.46 0.1152 10.1752 0.3456 9.9456C0.576 9.716 0.8608 9.6008 1.2 9.6C1.54 9.6 1.8252 9.7152 2.0556 9.9456C2.286 10.176 2.4008 10.4608 2.4 10.8C2.4 11.14 2.2848 11.4252 2.0544 11.6556C1.824 11.886 1.5392 12.0008 1.2 12Z" fill="#0F625D"/>
</svg>
